<svg width="134" height="170" viewBox="0 0 134 170" fill="none" xmlns="http://www.w3.org/2000/svg">
<g opacity="0.8" clip-path="url(#clip0_2234_9590)">
<path d="M39.7073 163.77C41.1795 163.766 42.2867 164.871 42.2908 166.348C42.2949 167.825 41.1939 168.936 39.7218 168.94C38.2496 168.944 37.1424 167.839 37.1383 166.362C37.1342 164.885 38.3579 163.774 39.7073 163.77Z" fill="#FFCF2D"/>
<path d="M39.6458 141.738C41.1179 141.734 42.2251 142.839 42.2293 144.316C42.2334 145.793 41.1324 146.904 39.6602 146.908C38.1881 146.912 37.0809 145.807 37.0768 144.33C37.073 142.976 38.2963 141.742 39.6458 141.738Z" fill="#FFCF2D"/>
<path d="M39.5848 119.829C41.0569 119.825 42.1641 120.93 42.1682 122.407C42.1724 123.884 41.0713 124.995 39.5992 124.999C38.1271 125.003 37.0199 123.898 37.0157 122.421C37.0116 120.944 38.2353 119.833 39.5848 119.829Z" fill="#FFCF2D"/>
<path d="M39.5232 97.7958C40.9954 97.7917 42.1026 98.8964 42.1067 100.373C42.1108 101.85 41.0098 102.961 39.5377 102.965C38.0655 102.97 36.9583 101.865 36.9542 100.388C36.9501 98.9108 38.1738 97.7996 39.5232 97.7958Z" fill="#FFCF2D"/>
<path d="M39.4617 75.7636C40.9339 75.7595 42.0411 76.8642 42.0452 78.3412C42.0493 79.8183 40.9483 80.9291 39.4761 80.9332C38.004 80.9373 36.8968 79.8327 36.8927 78.3556C36.8889 77.0017 38.1123 75.7674 39.4617 75.7636Z" fill="#FFCF2D"/>
<path d="M39.4002 53.7314C40.8723 53.7273 41.9795 54.832 41.9837 56.309C41.9878 57.786 40.8868 58.8969 39.4146 58.901C37.9425 58.9051 36.8353 57.8004 36.8312 56.3234C36.827 54.8464 38.0507 53.7352 39.4002 53.7314Z" fill="#FFCF2D"/>
<path d="M39.3392 31.8222C40.8113 31.8181 41.9185 32.9228 41.9226 34.3998C41.9268 35.8769 40.8257 36.9877 39.3536 36.9918C37.8814 36.9959 36.7743 35.8912 36.7701 34.4142C36.766 32.9372 37.9897 31.826 39.3392 31.8222Z" fill="#FFCF2D"/>
<path d="M39.2776 9.78999C40.7498 9.78588 41.857 10.8906 41.8611 12.3676C41.8652 13.8446 40.7642 14.9555 39.2921 14.9596C37.8199 14.9637 36.7127 13.859 36.7086 12.382C36.7045 10.905 37.9282 9.79376 39.2776 9.78999Z" fill="#FFCF2D"/>
<path d="M57.9861 163.72C59.4583 163.716 60.5655 164.82 60.5696 166.297C60.5737 167.774 59.4727 168.885 58.0006 168.889C56.5284 168.893 55.4212 167.789 55.4171 166.312C55.413 164.835 56.514 163.724 57.9861 163.72Z" fill="#FFCF2D"/>
<path d="M57.9246 141.686C59.3968 141.682 60.504 142.787 60.5081 144.264C60.5122 145.741 59.4112 146.852 57.939 146.856C56.4669 146.86 55.3597 145.756 55.3556 144.278C55.3518 142.925 56.4525 141.691 57.9246 141.686Z" fill="#FFCF2D"/>
<path d="M57.8636 119.777C59.3357 119.773 60.4429 120.878 60.447 122.355C60.4512 123.832 59.3502 124.943 57.878 124.947C56.4059 124.951 55.2987 123.846 55.2945 122.369C55.2904 120.892 56.3914 119.781 57.8636 119.777Z" fill="#FFCF2D"/>
<path d="M57.8021 97.7451C59.2742 97.741 60.3814 98.8456 60.3855 100.323C60.3896 101.8 59.2886 102.911 57.8165 102.915C56.3443 102.919 55.2371 101.814 55.233 100.337C55.2289 98.86 56.3299 97.7492 57.8021 97.7451Z" fill="#FFCF2D"/>
<path d="M57.7405 75.7128C59.2127 75.7087 60.3199 76.8134 60.324 78.2905C60.3281 79.7675 59.2271 80.8783 57.755 80.8825C56.2828 80.8866 55.1756 79.7819 55.1715 78.3048C55.1677 76.9509 56.2684 75.7169 57.7405 75.7128Z" fill="#FFCF2D"/>
<path d="M57.679 53.6796C59.1512 53.6755 60.2583 54.7802 60.2625 56.2572C60.2666 57.7343 59.1656 58.8451 57.6934 58.8493C56.2213 58.8534 55.1141 57.7487 55.11 56.2716C55.1058 54.7946 56.2069 53.6837 57.679 53.6796Z" fill="#FFCF2D"/>
<path d="M57.618 31.7714C59.0901 31.7673 60.1973 32.872 60.2014 34.349C60.2056 35.8261 59.1045 36.9369 57.6324 36.941C56.1603 36.9452 55.0531 35.8405 55.0489 34.3634C55.0448 32.8864 56.1458 31.7755 57.618 31.7714Z" fill="#FFCF2D"/>
<path d="M57.5564 9.73822C59.0286 9.73411 60.1358 10.8388 60.1399 12.3158C60.144 13.7929 59.043 14.9037 57.5709 14.9078C56.0987 14.912 54.9915 13.8073 54.9874 12.3302C54.9833 10.8532 56.0843 9.74233 57.5564 9.73822Z" fill="#FFCF2D"/>
<path d="M3.27178 163.872C4.74392 163.868 5.85112 164.973 5.85524 166.45C5.85937 167.927 4.75835 169.038 3.28621 169.042C1.81407 169.046 0.706868 167.941 0.702743 166.464C0.698619 164.987 1.79963 163.876 3.27178 163.872Z" fill="#FFCF2D"/>
<path d="M3.21025 141.84C4.6824 141.836 5.7896 142.94 5.79372 144.417C5.79785 145.894 4.69683 147.005 3.22469 147.009C1.75254 147.014 0.645344 145.909 0.64122 144.432C0.637439 143.078 1.73811 141.844 3.21025 141.84Z" fill="#FFCF2D"/>
<path d="M3.14922 119.931C4.62136 119.926 5.72856 121.031 5.73269 122.508C5.73681 123.985 4.6358 125.096 3.16365 125.1C1.69151 125.104 0.583965 123.877 0.580185 122.523C0.576061 121.046 1.67707 119.935 3.14922 119.931Z" fill="#FFCF2D"/>
<path d="M3.08769 97.8984C4.55984 97.8943 5.66704 98.999 5.67116 100.476C5.67529 101.953 4.57427 103.064 3.10213 103.068C1.62999 103.072 0.522442 101.844 0.518661 100.49C0.514881 99.1364 1.61555 97.9025 3.08769 97.8984Z" fill="#FFCF2D"/>
<path d="M3.02617 75.8652C4.49831 75.8611 5.60551 76.9658 5.60964 78.4428C5.61376 79.9198 4.51275 81.0307 3.04061 81.0348C1.56846 81.0389 0.461262 79.9342 0.457138 78.4572C0.453357 77.1032 1.55403 75.8693 3.02617 75.8652Z" fill="#FFCF2D"/>
<path d="M2.96465 53.833C4.43679 53.8288 5.54399 54.9335 5.54812 56.4106C5.55224 57.8876 4.45123 58.9985 2.97908 59.0026C1.50694 59.0067 0.399739 57.902 0.395615 56.425C0.39149 54.9479 1.4925 53.8371 2.96465 53.833Z" fill="#FFCF2D"/>
<path d="M2.90312 31.9238C4.37527 31.9197 5.48247 33.0244 5.48659 34.5014C5.49072 35.9784 4.3897 37.0893 2.91756 37.0934C1.44542 37.0975 0.338215 35.9928 0.334091 34.5158C0.329967 33.0387 1.43098 31.9279 2.90312 31.9238Z" fill="#FFCF2D"/>
<path d="M2.8416 9.89154C4.31374 9.88743 5.42094 10.9921 5.42507 12.4692C5.42919 13.9462 4.32818 15.0571 2.85604 15.0612C1.38389 15.0653 0.276692 13.9606 0.272568 12.4836C0.268443 11.0065 1.36946 9.89565 2.8416 9.89154Z" fill="#FFCF2D"/>
<path d="M21.5511 163.821C23.0232 163.817 24.1304 164.922 24.1345 166.399C24.1387 167.876 22.915 168.987 21.5655 168.991C20.0934 168.995 18.9862 167.89 18.982 166.413C18.9779 164.936 20.0789 163.825 21.5511 163.821Z" fill="#FFCF2D"/>
<path d="M21.4896 141.788C22.9617 141.784 24.0689 142.889 24.073 144.366C24.0771 145.843 22.9761 146.954 21.504 146.958C20.0318 146.962 18.9246 145.857 18.9205 144.38C18.9167 143.026 20.0174 141.792 21.4896 141.788Z" fill="#FFCF2D"/>
<path d="M21.4285 119.88C22.9007 119.876 24.0079 120.98 24.012 122.457C24.0161 123.934 22.9151 125.045 21.4429 125.049C19.9708 125.054 18.8636 123.949 18.8595 122.472C18.8554 120.995 19.9564 119.884 21.4285 119.88Z" fill="#FFCF2D"/>
<path d="M21.367 97.8466C22.8391 97.8425 23.9463 98.9472 23.9505 100.424C23.9546 101.901 22.8536 103.012 21.3814 103.016C19.9093 103.02 18.8021 101.916 18.798 100.439C18.7938 98.9616 19.8948 97.8507 21.367 97.8466Z" fill="#FFCF2D"/>
<path d="M21.3055 75.8144C22.7776 75.8103 23.8848 76.915 23.8889 78.392C23.8931 79.869 22.792 80.9799 21.3199 80.984C19.8478 80.9881 18.7406 79.8834 18.7364 78.4064C18.7327 77.0525 19.8333 75.8185 21.3055 75.8144Z" fill="#FFCF2D"/>
<path d="M21.2439 53.7822C22.7161 53.7781 23.8233 54.8828 23.8274 56.3598C23.8315 57.8368 22.7305 58.9477 21.2584 58.9518C19.7862 58.9559 18.679 57.8512 18.6749 56.3742C18.6708 54.8971 19.7718 53.7863 21.2439 53.7822Z" fill="#FFCF2D"/>
<path d="M21.1824 31.873C22.6546 31.8689 23.7618 32.9736 23.7659 34.4506C23.77 35.9276 22.669 37.0385 21.1969 37.0426C19.7247 37.0467 18.6175 35.942 18.6134 34.465C18.6093 32.988 19.7103 31.8771 21.1824 31.873Z" fill="#FFCF2D"/>
<path d="M21.1209 9.83978C22.593 9.83567 23.7002 10.9404 23.7044 12.4174C23.7085 13.8944 22.6075 15.0053 21.1353 15.0094C19.6632 15.0135 18.556 13.9088 18.5519 12.4318C18.5477 10.9548 19.6488 9.84389 21.1209 9.83978Z" fill="#FFCF2D"/>
<path d="M76.1429 163.669C77.615 163.665 78.7222 164.769 78.7263 166.247C78.7305 167.724 77.6294 168.834 76.1573 168.839C74.6852 168.843 73.578 167.738 73.5738 166.261C73.5697 164.784 74.7934 163.673 76.1429 163.669Z" fill="#FFCF2D"/>
<path d="M76.0813 141.636C77.5535 141.632 78.6607 142.736 78.6648 144.213C78.6689 145.69 77.5679 146.801 76.0958 146.805C74.6236 146.809 73.5164 145.705 73.5123 144.228C73.5085 142.874 74.7319 141.639 76.0813 141.636Z" fill="#FFCF2D"/>
<path d="M76.0203 119.727C77.4925 119.722 78.5997 120.827 78.6038 122.304C78.6079 123.781 77.5069 124.892 76.0347 124.896C74.5626 124.9 73.4554 123.796 73.4513 122.319C73.4472 120.841 74.6708 119.73 76.0203 119.727Z" fill="#FFCF2D"/>
<path d="M75.9588 97.6943C77.4309 97.6902 78.5381 98.7949 78.5422 100.272C78.5464 101.749 77.4454 102.86 75.9732 102.864C74.5011 102.868 73.3939 101.763 73.3898 100.286C73.3856 98.8092 74.6093 97.698 75.9588 97.6943Z" fill="#FFCF2D"/>
<path d="M75.8973 75.6621C77.3694 75.6579 78.4766 76.7626 78.4807 78.2397C78.4849 79.7167 77.3838 80.8276 75.9117 80.8317C74.4396 80.8358 73.3324 79.7311 73.3282 78.2541C73.3245 76.9001 74.5478 75.6658 75.8973 75.6621Z" fill="#FFCF2D"/>
<path d="M75.8357 53.6298C77.3079 53.6257 78.4151 54.7304 78.4192 56.2074C78.4233 57.6845 77.3223 58.7953 75.8502 58.7994C74.378 58.8036 73.2708 57.6989 73.2667 56.2218C73.2626 54.7448 74.4863 53.6336 75.8357 53.6298Z" fill="#FFCF2D"/>
<path d="M75.7747 31.7206C77.2468 31.7165 78.354 32.8212 78.3582 34.2983C78.3623 35.7753 77.2613 36.8862 75.7891 36.8903C74.317 36.8944 73.2098 35.7897 73.2057 34.3126C73.2015 32.8356 74.4252 31.7244 75.7747 31.7206Z" fill="#FFCF2D"/>
<path d="M75.7132 9.68744C77.1853 9.68333 78.2925 10.788 78.2966 12.2651C78.3008 13.7421 77.1998 14.853 75.7276 14.8571C74.2555 14.8612 73.1483 13.7565 73.1441 12.2794C73.14 10.8024 74.3637 9.69121 75.7132 9.68744Z" fill="#FFCF2D"/>
<path d="M94.4222 163.617C95.8943 163.613 97.0015 164.718 97.0056 166.195C97.0097 167.672 95.9087 168.783 94.4366 168.787C92.9645 168.791 91.8573 167.686 91.8531 166.209C91.849 164.732 92.95 163.621 94.4222 163.617Z" fill="#FFCF2D"/>
<path d="M94.3606 141.585C95.8328 141.581 96.94 142.685 96.9441 144.163C96.9482 145.64 95.8472 146.75 94.3751 146.755C92.9029 146.759 91.7957 145.654 91.7916 144.177C91.7878 142.823 92.8885 141.589 94.3606 141.585Z" fill="#FFCF2D"/>
<path d="M94.2991 119.676C95.7713 119.672 96.8785 120.776 96.8826 122.253C96.8867 123.73 95.7857 124.841 94.3136 124.845C92.8414 124.849 91.7342 123.745 91.7301 122.268C91.726 120.791 92.827 119.68 94.2991 119.676Z" fill="#FFCF2D"/>
<path d="M96.8211 100.221C96.8171 98.7936 95.6604 97.6395 94.2376 97.6435C92.8148 97.6475 91.6646 98.8079 91.6686 100.236C91.6725 101.663 92.8292 102.817 94.252 102.813C95.6748 102.809 96.825 101.649 96.8211 100.221Z" fill="#FFCF2D"/>
<path d="M94.1761 75.6113C95.6482 75.6072 96.7554 76.7119 96.7595 78.1889C96.7636 79.6659 95.6626 80.7768 94.1905 80.7809C92.7184 80.785 91.6112 79.6803 91.607 78.2033C91.6033 76.8493 92.7039 75.6154 94.1761 75.6113Z" fill="#FFCF2D"/>
<path d="M94.1145 53.5781C95.5867 53.574 96.6939 54.6787 96.698 56.1557C96.7021 57.6327 95.6011 58.7436 94.129 58.7477C92.6568 58.7518 91.5496 57.6471 91.5455 56.1701C91.5414 54.693 92.6424 53.5822 94.1145 53.5781Z" fill="#FFCF2D"/>
<path d="M94.0535 31.6689C95.5257 31.6648 96.6328 32.7695 96.637 34.2465C96.6411 35.7235 95.5401 36.8344 94.0679 36.8385C92.5958 36.8426 91.4886 35.7379 91.4845 34.2609C91.4804 32.7839 92.5814 31.673 94.0535 31.6689Z" fill="#FFCF2D"/>
<path d="M96.5754 12.2143C96.5715 10.7867 95.4148 9.63268 93.992 9.63666C92.5692 9.64063 91.419 10.8011 91.423 12.2287C91.4269 13.6562 92.5836 14.8103 94.0064 14.8063C95.4292 14.8023 96.5794 13.6418 96.5754 12.2143Z" fill="#FFCF2D"/>
<path d="M112.701 163.566C114.173 163.562 115.28 164.667 115.284 166.144C115.289 167.621 114.188 168.732 112.715 168.736C111.243 168.74 110.136 167.635 110.132 166.158C110.128 164.681 111.229 163.57 112.701 163.566Z" fill="#FFCF2D"/>
<path d="M112.639 141.534C114.112 141.53 115.219 142.635 115.223 144.112C115.227 145.589 114.126 146.7 112.654 146.704C111.182 146.708 110.075 145.603 110.07 144.126C110.067 142.772 111.167 141.538 112.639 141.534Z" fill="#FFCF2D"/>
<path d="M112.578 119.625C114.051 119.621 115.158 120.726 115.162 122.203C115.166 123.68 114.065 124.79 112.593 124.795C111.121 124.799 110.014 123.694 110.009 122.217C110.005 120.74 111.106 119.629 112.578 119.625Z" fill="#FFCF2D"/>
<path d="M112.517 97.5927C113.989 97.5886 115.096 98.6933 115.1 100.17C115.104 101.647 114.003 102.758 112.531 102.762C111.059 102.766 109.952 101.662 109.948 100.185C109.944 98.7077 111.045 97.5968 112.517 97.5927Z" fill="#FFCF2D"/>
<path d="M112.455 75.5595C113.928 75.5554 115.035 76.6601 115.039 78.1371C115.043 79.6142 113.942 80.725 112.47 80.7291C110.998 80.7332 109.89 79.6286 109.886 78.1515C109.883 76.7976 110.983 75.5636 112.455 75.5595Z" fill="#FFCF2D"/>
<path d="M112.394 53.5273C113.866 53.5232 114.973 54.6279 114.977 56.1049C114.981 57.5819 113.88 58.6928 112.408 58.6969C110.936 58.701 109.829 57.5963 109.825 56.1193C109.821 54.6423 110.922 53.5314 112.394 53.5273Z" fill="#FFCF2D"/>
<path d="M112.333 31.6181C113.805 31.614 114.912 32.7187 114.916 34.1957C114.92 35.6728 113.819 36.7836 112.347 36.7877C110.875 36.7918 109.768 35.6871 109.764 34.2101C109.76 32.7331 110.861 31.6222 112.333 31.6181Z" fill="#FFCF2D"/>
<path d="M112.271 9.58587C113.743 9.58176 114.851 10.6865 114.855 12.1635C114.859 13.6405 113.758 14.7514 112.286 14.7555C110.814 14.7596 109.706 13.6549 109.702 12.1779C109.698 10.7009 110.799 9.58999 112.271 9.58587Z" fill="#FFCF2D"/>
<path d="M130.858 163.516C132.33 163.511 133.437 164.616 133.441 166.093C133.445 167.57 132.344 168.681 130.872 168.685C129.4 168.689 128.293 167.585 128.289 166.108C128.285 164.631 129.508 163.519 130.858 163.516Z" fill="#FFCF2D"/>
<path d="M130.796 141.483C132.268 141.479 133.376 142.584 133.38 144.061C133.384 145.538 132.283 146.649 130.811 146.653C129.338 146.657 128.231 145.552 128.227 144.075C128.223 142.721 129.447 141.487 130.796 141.483Z" fill="#FFCF2D"/>
<path d="M130.735 119.574C132.207 119.57 133.314 120.675 133.318 122.152C133.322 123.629 132.221 124.74 130.749 124.744C129.277 124.748 128.17 123.643 128.166 122.166C128.162 120.689 129.385 119.578 130.735 119.574Z" fill="#FFCF2D"/>
<path d="M130.673 97.5419C132.145 97.5378 133.252 98.6425 133.257 100.12C133.261 101.597 132.16 102.707 130.688 102.712C129.215 102.716 128.108 101.611 128.104 100.134C128.1 98.6569 129.324 97.5457 130.673 97.5419Z" fill="#FFCF2D"/>
<path d="M130.612 75.5087C132.084 75.5046 133.191 76.6093 133.195 78.0864C133.199 79.5634 132.098 80.6742 130.626 80.6784C129.154 80.6825 128.047 79.5778 128.043 78.1007C128.039 76.7468 129.262 75.5125 130.612 75.5087Z" fill="#FFCF2D"/>
<path d="M130.55 53.4765C132.022 53.4724 133.129 54.5771 133.134 56.0541C133.138 57.5312 132.037 58.642 130.565 58.6461C129.092 58.6502 127.985 57.5455 127.981 56.0685C127.977 54.5915 129.201 53.4803 130.55 53.4765Z" fill="#FFCF2D"/>
<path d="M130.489 31.5673C131.961 31.5632 133.068 32.6679 133.073 34.1449C133.077 35.622 131.976 36.7328 130.503 36.7369C129.031 36.7411 127.924 35.6364 127.92 34.1593C127.916 32.6823 129.14 31.5711 130.489 31.5673Z" fill="#FFCF2D"/>
<path d="M130.428 9.53509C131.9 9.53098 133.007 10.6357 133.011 12.1127C133.015 13.5898 131.914 14.7006 130.442 14.7047C128.97 14.7088 127.863 13.6041 127.859 12.1271C127.854 10.6501 129.078 9.53886 130.428 9.53509Z" fill="#FFCF2D"/>
</g>
<defs>
<clipPath id="clip0_2234_9590">
<rect width="181.184" height="132.739" fill="white" transform="translate(0.709961 169.049) rotate(-90.16)"/>
</clipPath>
</defs>
</svg>
